<svg width="37" height="37" viewBox="0 0 37 37" fill="none" xmlns="http://www.w3.org/2000/svg">
<path d="M6.7019 19.055C6.69976 19.0976 6.69976 19.1414 6.69976 19.184C6.69976 22.9234 8.47389 26.2501 11.2286 28.3709L13.6369 25.9697L18.5144 21.1065L23.3695 25.9473L25.643 28.2141C26.0451 27.8911 26.4258 27.5402 26.7809 27.166L24.4635 24.8554L18.5005 18.91V9.67087L24.2432 15.3956L29.0972 20.2353L29.8361 20.9721L35.382 26.5017C34.458 28.5511 33.1694 30.401 31.5996 31.9705C31.2349 32.3352 30.8553 32.6849 30.4606 33.0176C28.6416 34.5573 26.521 35.7515 24.1983 36.5L18.5005 30.819V30.8019L18.5176 30.7849C18.5123 30.7859 18.5059 30.7859 18.5005 30.7849C18.4888 30.7859 18.4781 30.7859 18.4663 30.7849L18.492 30.8105L12.79 36.4957C10.479 35.7494 8.36695 34.5605 6.55432 33.0315C2.54516 29.6472 0 24.5931 0 18.9462C0 16.9641 0.313333 15.0544 0.894014 13.2641C1.6458 10.9493 2.84245 8.83386 4.38666 7.02016C4.72031 6.62777 5.07107 6.24819 5.4368 5.88459C7.01095 4.31933 8.86635 3.03556 10.9217 2.11431C12.5665 1.37646 14.3384 0.872123 16.196 0.641812C16.951 0.547982 17.7199 0.5 18.5005 0.5C24.164 0.5 29.233 3.03769 32.6272 7.03508C34.1608 8.84239 35.3521 10.9472 36.1017 13.2514C36.6845 15.0448 37 16.9587 37 18.9462C37 19.7246 36.9519 20.4912 36.8578 21.2429L32.4722 16.8702L27.6182 12.0305L26.5648 10.9802C24.4945 8.91702 21.6488 7.62686 18.5005 7.58421C18.446 7.58207 18.3904 7.58207 18.3358 7.58207C17.7263 7.58207 17.1274 7.62899 16.5435 7.71855C14.1545 8.08748 12.0072 9.17932 10.3314 10.7648C9.955 11.1188 9.60424 11.4984 9.28021 11.8993C7.69109 13.8602 6.7297 16.3467 6.7019 19.055Z" fill="#0A78D5"/>
</svg>
